<?xml version="1.0" standalone="no"?>
<!DOCTYPE svg PUBLIC "-//W3C//DTD SVG 20010904//EN"
 "http://www.w3.org/TR/2001/REC-SVG-20010904/DTD/svg10.dtd">
<svg version="1.0" xmlns="http://www.w3.org/2000/svg"
 width="634.000000pt" height="489.000000pt" viewBox="0 0 634.000000 489.000000"
 preserveAspectRatio="xMidYMid meet">

<g transform="translate(0.000000,489.000000) scale(0.100000,-0.100000)"
fill="#000000" stroke="none">
<path d="M1163 4530 c-116 -23 -164 -84 -263 -330 -23 -58 -186 -395 -363
-749 -276 -554 -321 -651 -325 -698 -8 -92 31 -116 183 -114 l100 1 -42 -42
c-52 -55 -71 -93 -79 -160 -11 -95 50 -240 192 -460 35 -54 68 -98 74 -98 27
0 260 175 357 268 97 92 128 157 128 264 0 69 -3 81 -30 119 -60 85 -183 115
-290 69 -25 -11 -43 -15 -40 -9 10 16 -16 40 -70 65 -58 26 -63 22 105 63 265
65 317 73 535 81 248 10 297 23 363 94 64 70 74 138 23 166 -83 44 -462 -2
-891 -106 -104 -26 -196 -44 -204 -41 -14 5 -14 11 -1 47 24 67 90 204 199
410 512 967 542 1033 522 1115 -12 47 -83 64 -183 45z m-413 -1965 c0 -2 -10
-10 -22 -16 -21 -11 -22 -11 -9 4 13 16 31 23 31 12z"/>
<path d="M1835 4403 c-113 -15 -219 -70 -307 -158 -68 -68 -100 -127 -129
-230 -18 -68 -21 -96 -16 -190 9 -180 47 -276 196 -499 152 -228 585 -748 627
-754 60 -9 668 534 833 742 227 287 239 645 29 855 -123 123 -326 187 -476
149 -50 -12 -173 -78 -209 -111 l-23 -20 -52 49 c-144 135 -299 190 -473 167z"/>
<path d="M5241 4094 c-82 -18 -187 -70 -271 -133 -65 -49 -223 -206 -272 -269
-20 -27 -37 -37 -84 -48 -78 -18 -166 -18 -211 1 -20 8 -55 33 -78 54 -63 58
-79 64 -149 56 -71 -8 -139 -41 -189 -94 -20 -20 -91 -117 -159 -217 -200
-292 -302 -433 -311 -425 -4 4 -8 104 -10 222 -2 240 3 274 69 422 43 95 50
165 21 194 -14 14 -34 18 -96 18 -65 -1 -84 -5 -123 -28 -52 -30 -104 -90
-138 -156 -54 -108 -63 -282 -29 -575 24 -207 22 -351 -5 -403 -15 -30 -15
-35 -1 -64 24 -46 71 -62 146 -50 33 6 75 19 93 31 36 22 157 145 221 225 22
28 43 52 46 55 12 11 221 273 318 398 56 72 108 132 116 132 7 0 26 -5 41 -10
69 -27 239 -29 316 -4 18 5 20 3 15 -17 -3 -13 -17 -53 -32 -89 -15 -36 -38
-105 -51 -153 -53 -195 -16 -314 116 -375 50 -23 67 -26 185 -26 147 -1 221
13 374 71 216 80 550 284 751 458 208 181 284 262 278 294 -3 13 -15 16 -55
14 -73 -3 -100 -17 -258 -134 -313 -232 -519 -351 -725 -419 -212 -70 -352
-42 -354 71 l-1 41 155 95 c85 52 205 133 265 178 250 188 350 324 362 489 5
80 -11 124 -59 159 -35 26 -141 31 -227 11z m-11 -255 c0 -57 -49 -140 -129
-219 -70 -69 -258 -207 -268 -196 -8 8 44 100 108 189 68 96 177 205 236 236
50 27 53 26 53 -10z m-310 -129 c16 -31 -12 -74 -83 -127 -62 -46 -209 -123
-234 -123 -17 0 1 37 69 140 l49 75 82 26 c102 33 104 33 117 9z"/>
<path d="M2450 2575 c-47 -8 -123 -25 -170 -39 -192 -58 -467 -135 -502 -141
-89 -14 -216 -183 -240 -317 -12 -66 -182 -469 -343 -808 -104 -220 -124 -275
-132 -357 -5 -57 -4 -63 22 -88 26 -27 30 -28 110 -23 99 7 149 30 193 92 43
60 53 84 112 256 29 85 87 232 130 325 72 158 124 287 205 510 33 89 79 158
119 176 11 6 37 19 56 29 133 72 416 139 535 127 82 -8 109 -25 113 -69 3 -30
-3 -44 -33 -77 -42 -47 -167 -133 -320 -222 -106 -62 -113 -64 -195 -70 -102
-7 -167 -36 -224 -99 -68 -76 -83 -143 -41 -185 34 -35 126 -35 216 0 103 41
183 51 250 32 110 -32 179 -105 179 -188 0 -73 -41 -141 -154 -255 -119 -119
-210 -186 -309 -226 -107 -43 -143 -46 -207 -13 -45 23 -67 27 -132 27 -166
-1 -263 -72 -276 -202 -3 -39 0 -51 22 -77 38 -45 83 -56 217 -55 243 2 530
96 711 233 203 152 357 320 431 468 40 80 42 90 42 170 0 68 -5 94 -22 126
-32 60 -105 129 -178 166 -36 19 -65 36 -65 39 0 3 42 35 93 70 50 36 133 105
183 155 108 107 140 166 150 272 6 61 4 77 -15 116 -25 53 -73 92 -142 118
-60 23 -256 25 -389 4z"/>
<path d="M5540 2073 c-164 -18 -425 -169 -651 -377 -67 -63 -332 -259 -457
-341 -159 -102 -358 -179 -408 -156 -37 17 -57 66 -52 131 4 61 39 140 153
345 50 91 55 106 54 160 -1 134 -37 165 -199 173 -54 2 -120 -1 -149 -7 -127
-27 -312 -122 -473 -243 -208 -157 -447 -443 -531 -633 -64 -146 -49 -308 33
-350 69 -36 242 -8 396 64 79 37 259 149 294 182 20 18 102 83 117 93 8 4 16
-7 23 -36 15 -53 51 -103 92 -124 26 -13 54 -15 152 -11 132 5 173 15 328 85
26 12 78 40 114 62 37 22 68 39 70 37 2 -2 -1 -21 -7 -42 -6 -22 -9 -64 -7
-94 4 -46 10 -59 38 -84 l33 -29 106 4 c81 4 125 12 186 32 87 30 254 115 337
170 28 20 53 34 55 32 6 -5 -117 -279 -168 -374 -95 -179 -199 -306 -281 -345
-45 -21 -118 -22 -189 -1 -92 27 -159 75 -236 170 -56 69 -70 76 -129 65 -66
-13 -86 -40 -81 -111 4 -78 39 -144 118 -223 105 -105 213 -147 378 -147 96 0
174 20 265 68 99 51 240 193 336 337 109 164 287 538 440 925 23 58 71 173
108 255 55 123 67 159 67 203 0 49 -3 56 -37 87 -54 50 -113 62 -238 48z m-50
-242 c0 -19 -100 -263 -140 -341 -30 -58 -59 -93 -123 -145 -83 -67 -290 -177
-389 -205 -101 -30 0 155 196 358 123 128 242 231 349 303 88 59 107 64 107
30z m-1636 -57 c13 -35 4 -74 -37 -155 -118 -236 -426 -520 -648 -598 -91 -33
-102 3 -39 125 134 260 459 569 670 638 29 9 48 6 54 -10z m1064 -152 c5 -47
-41 -123 -118 -195 -76 -73 -230 -190 -238 -183 -13 13 178 264 285 373 48 50
67 51 71 5z"/>
<path d="M2745 620 c-100 -11 -167 -53 -167 -105 0 -35 16 -51 68 -66 78 -24
83 -54 15 -89 -27 -13 -59 -20 -101 -20 -47 0 -60 -3 -60 -15 0 -12 14 -15 65
-15 76 0 155 27 197 67 45 43 38 64 -34 98 -50 24 -64 35 -66 55 -2 19 4 29
25 41 50 29 81 32 95 9 17 -27 64 -27 79 1 19 37 -19 50 -116 39z"/>
<path d="M2915 555 c-33 -59 -39 -65 -76 -71 -51 -9 -61 -24 -14 -24 20 0 35
-3 33 -7 -2 -5 -18 -36 -36 -70 -41 -80 -41 -93 1 -93 39 0 59 12 52 31 -3 8
10 43 28 79 30 58 38 65 67 68 l32 3 -32 -44 c-20 -28 -30 -54 -28 -68 3 -23
7 -24 71 -23 59 0 72 4 105 31 20 16 46 44 57 61 12 19 28 31 43 32 27 0 27 2
-3 -70 -32 -75 -31 -80 6 -80 21 0 37 8 52 27 79 97 162 161 182 141 3 -3 -4
-23 -15 -46 -38 -79 -21 -107 63 -100 29 2 73 14 98 26 46 23 138 92 139 105
1 19 -40 3 -110 -43 -85 -56 -124 -66 -127 -35 -2 15 13 29 53 55 51 32 84 71
84 100 0 5 -21 10 -47 10 -36 0 -56 -6 -78 -24 -22 -17 -38 -23 -60 -19 -16 3
-49 -2 -72 -10 -41 -14 -43 -14 -43 4 0 24 -46 26 -71 3 -21 -19 -74 -11 -83
12 -7 19 -73 18 -119 -1 -20 -8 -53 -15 -73 -15 l-36 0 31 55 c17 30 31 57 31
60 0 3 -15 5 -34 5 -32 0 -37 -5 -71 -65z m205 -92 c0 -32 -76 -111 -92 -95
-15 15 0 49 39 87 43 42 53 43 53 8z"/>
</g>
</svg>
