<?xml version="1.0" standalone="no"?>
<!DOCTYPE svg PUBLIC "-//W3C//DTD SVG 20010904//EN"
 "http://www.w3.org/TR/2001/REC-SVG-20010904/DTD/svg10.dtd">
<svg version="1.0" xmlns="http://www.w3.org/2000/svg"
 width="710.000000pt" height="555.000000pt" viewBox="0 0 710.000000 555.000000"
 preserveAspectRatio="xMidYMid meet">

<g transform="translate(0.000000,555.000000) scale(0.100000,-0.100000)"
fill="#000000" stroke="none">
<path d="M574 5321 c-30 -13 -62 -57 -74 -102 -6 -21 -17 -130 -25 -241 -8
-112 -28 -295 -45 -408 -17 -113 -44 -295 -60 -405 -26 -184 -48 -307 -117
-675 -15 -82 -26 -176 -26 -240 -2 -94 0 -108 20 -136 45 -63 118 -74 363 -55
116 10 190 25 400 86 320 92 436 112 694 120 204 7 238 14 290 63 15 15 32 38
38 52 l9 24 41 -44 c181 -197 471 -480 491 -480 20 0 86 46 312 215 235 177
437 345 573 476 57 56 105 99 108 96 2 -2 27 -55 55 -117 79 -177 121 -311
127 -410 5 -75 8 -88 32 -112 38 -38 67 -42 204 -31 l120 9 39 45 c48 53 253
465 382 769 48 113 90 208 94 212 3 4 44 1 91 -8 61 -10 117 -12 204 -8 l119
7 -9 -59 c-5 -32 -9 -126 -9 -209 1 -126 4 -163 24 -232 41 -143 130 -245 256
-293 76 -29 258 -38 427 -21 273 27 501 148 820 434 192 173 446 504 421 550
-2 4 -49 7 -104 7 -77 0 -106 -4 -127 -17 -15 -9 -108 -96 -207 -193 -152
-148 -211 -200 -355 -313 -8 -7 -42 -29 -75 -51 -33 -21 -71 -46 -85 -55 -45
-31 -180 -91 -262 -118 -80 -26 -81 -26 -136 -8 -100 31 -153 80 -184 169 -32
93 -27 108 49 162 86 62 254 205 362 308 97 94 158 175 203 272 30 63 33 78
33 164 0 109 -18 160 -79 227 -51 57 -91 66 -277 61 -152 -3 -155 -4 -220 -36
-37 -19 -92 -56 -122 -83 -73 -65 -177 -211 -235 -330 l-47 -97 -60 -21 c-33
-12 -74 -21 -90 -21 -37 0 -163 62 -230 114 l-50 38 -131 -4 c-150 -5 -168
-12 -208 -80 -13 -24 -62 -144 -109 -268 -47 -124 -100 -259 -117 -300 -17
-41 -38 -94 -47 -117 -8 -24 -18 -45 -23 -48 -11 -7 -134 304 -159 402 -27
105 -28 135 -6 213 25 87 25 253 1 335 -24 82 -83 179 -147 243 -106 103 -301
181 -479 189 -93 4 -115 2 -195 -22 -117 -34 -189 -71 -237 -119 -21 -22 -45
-41 -54 -42 -8 -1 -43 26 -77 60 -91 92 -219 160 -362 193 -134 30 -370 1
-493 -61 -67 -34 -111 -81 -189 -201 -36 -55 -71 -105 -79 -111 -20 -16 -55
-132 -61 -204 -7 -85 18 -236 55 -332 44 -114 159 -291 311 -481 39 -48 71
-89 71 -90 0 -1 -64 -3 -143 -5 -296 -6 -573 -49 -886 -138 -159 -46 -164 -47
-178 -28 -24 31 -11 186 41 504 25 157 55 344 67 415 11 72 54 297 95 501 l74
370 -15 60 c-10 38 -26 70 -46 89 l-29 30 -158 2 c-86 1 -167 -2 -178 -6z
m5110 -826 c8 -40 -7 -101 -39 -165 -24 -47 -180 -219 -189 -209 -13 12 24
101 58 141 27 31 36 50 34 73 -1 16 7 44 17 60 39 62 96 135 104 135 5 0 12
-16 15 -35z m-366 -232 c-13 -31 -49 -75 -56 -69 -8 9 20 76 36 86 28 16 32
12 20 -17z"/>
<path d="M777 3016 c-51 -14 -87 -40 -87 -64 0 -21 -71 -132 -91 -143 -10 -5
-24 -27 -30 -50 -17 -54 1 -139 56 -278 37 -92 157 -340 183 -379 7 -10 24 -2
76 37 53 40 66 47 66 32 0 -62 -54 -572 -75 -706 -14 -88 -29 -185 -33 -216
-13 -85 3 -204 35 -266 30 -56 62 -73 141 -73 40 0 175 16 220 25 19 5 22 1
22 -24 0 -137 106 -204 315 -200 109 2 333 29 405 49 183 50 300 106 389 186
98 89 215 243 274 361 58 115 85 260 66 355 -31 156 -216 325 -431 393 l-67
21 109 102 c231 217 286 343 230 525 -17 54 -29 73 -71 111 -28 25 -81 61
-118 79 -66 32 -66 32 -244 35 -290 5 -389 -7 -583 -73 -90 -30 -169 -55 -174
-55 -6 0 -10 6 -10 13 0 33 -60 96 -116 122 -50 24 -67 27 -128 23 -87 -6
-130 -26 -197 -89 -29 -27 -54 -47 -57 -44 -13 12 24 54 84 95 l65 44 -23 18
c-28 21 -104 48 -132 47 -12 0 -42 -6 -69 -13z m1276 -335 c48 -11 103 -48
116 -79 20 -42 13 -95 -18 -143 -42 -62 -124 -147 -206 -210 -38 -29 -72 -56
-75 -59 -3 -3 -37 -26 -77 -51 -65 -42 -79 -47 -153 -53 -88 -7 -164 -29 -194
-55 -27 -23 -46 -74 -46 -120 0 -32 6 -44 31 -65 44 -37 67 -40 208 -29 105 9
138 16 199 42 l72 32 63 -17 c89 -23 174 -70 239 -135 74 -73 90 -113 86 -210
-2 -63 -9 -87 -40 -150 -76 -153 -248 -337 -354 -378 l-55 -21 -62 26 c-39 16
-90 28 -137 31 -85 6 -302 -12 -332 -28 -18 -10 -19 -8 -13 33 7 54 8 99 6
318 -2 130 3 215 18 330 12 85 26 263 31 395 14 340 14 339 62 391 74 80 179
134 363 185 104 29 199 36 268 20z"/>
<path d="M5418 2310 c-109 -10 -219 -59 -328 -147 -79 -63 -206 -192 -237
-240 -10 -15 -22 -33 -28 -39 -6 -6 -28 -38 -49 -71 -38 -59 -269 -296 -356
-364 -115 -90 -258 -164 -297 -154 -55 13 -127 107 -147 190 -16 66 -6 185 29
339 44 194 44 225 3 307 -58 113 -108 128 -379 113 -165 -10 -166 -10 -250
-50 -276 -133 -533 -457 -635 -799 -38 -128 -40 -281 -4 -379 29 -80 85 -150
136 -166 55 -18 294 13 396 52 104 40 210 110 311 208 l84 80 49 -48 c74 -71
132 -95 229 -96 44 0 130 5 190 12 154 17 227 42 340 113 34 21 64 39 67 39 3
0 8 -25 11 -55 12 -118 71 -185 161 -185 100 0 291 32 366 61 73 28 247 124
282 156 9 8 21 13 25 12 12 -5 -12 -252 -38 -409 -38 -224 -92 -349 -177 -405
-38 -25 -39 -25 -118 -11 -140 25 -306 120 -449 257 l-40 39 -100 -13 -100
-12 -3 -42 c-5 -66 36 -134 142 -238 144 -141 309 -223 469 -233 116 -7 317
23 394 59 177 84 294 305 357 679 28 167 59 465 81 780 9 124 22 281 30 349 8
68 12 141 9 162 -8 51 -57 107 -118 135 -56 26 -131 29 -308 14z m45 -260 c4
-16 -2 -122 -13 -236 -18 -188 -22 -210 -47 -253 -58 -100 -170 -196 -326
-281 l-78 -42 -26 23 c-23 22 -25 29 -20 84 17 182 197 490 401 683 83 78 98
81 109 22z m-1833 -51 c9 -21 11 -61 7 -132 -11 -194 -65 -346 -175 -493 -67
-91 -142 -157 -257 -229 -85 -53 -86 -53 -106 20 -43 155 145 566 343 752 58
54 143 113 164 113 6 0 17 -14 24 -31z"/>
</g>
</svg>
